# xmcd CD database file
#
# Track frame offsets:
#	150
#	52573
#	99678
#	135126
#	202428
#	254477
#
# Disc length: 4016 seconds
#
# Revision: 0
# Processed by: cddbd v1.5.2PL0 Copyright (c) Steve Scherf et al.
# Submitted via: CDex 1.51
#
DISCID=4e0fae06
DTITLE=Christine Jensen Jazz Orchestra - Habitat
DYEAR=2013
DGENRE=Jazz
TTITLE0=Treelines
TTITLE1=Tumbledown
TTITLE2=Blue Yonder
TTITLE3=Nishlyuu
TTITLE4=Intersection
TTITLE5=Sweet Adelphi
EXTD=YEAR: 2013
EXTT0=
EXTT1=
EXTT2=
EXTT3=
EXTT4=
EXTT5=
PLAYORDER=
